<svg width="24" height="24" viewBox="0 0 24 24" fill="none" xmlns="http://www.w3.org/2000/svg">
<path fill-rule="evenodd" clip-rule="evenodd" d="M16.5136 21.5H8.16579C5.09943 21.5 2.74703 20.3925 3.41522 15.9348L4.19325 9.89363C4.60515 7.66937 6.02392 6.81812 7.26877 6.81812H17.4473C18.7104 6.81812 20.0468 7.73345 20.5228 9.89363L21.3008 15.9348C21.8683 19.8891 19.58 21.5 16.5136 21.5Z" stroke="#130F26" stroke-width="1.5" stroke-linecap="round" stroke-linejoin="round"/>
<path d="M16.651 6.59848C16.651 4.21241 14.7167 2.27812 12.3306 2.27812V2.27812C11.1816 2.27325 10.078 2.72628 9.26381 3.53703C8.44963 4.34778 7.99193 5.44947 7.99194 6.59848H7.99194" stroke="#130F26" stroke-width="1.5" stroke-linecap="round" stroke-linejoin="round"/>
<path d="M15.2962 11.102H15.2505" stroke="#130F26" stroke-width="1.5" stroke-linecap="round" stroke-linejoin="round"/>
<path d="M9.46566 11.102H9.41989" stroke="#130F26" stroke-width="1.5" stroke-linecap="round" stroke-linejoin="round"/>
</svg>
