<svg width="24" height="24" viewBox="0 0 24 24" fill="none" xmlns="http://www.w3.org/2000/svg">
<mask id="mask0_979:14525" style="mask-type:alpha" maskUnits="userSpaceOnUse" x="0" y="9" width="24" height="6">
<path fill-rule="evenodd" clip-rule="evenodd" d="M4.36364 12C4.36364 10.8402 3.3868 9.90001 2.18182 9.90001C0.976833 9.90001 0 10.8402 0 12C0 13.1598 0.976833 14.1 2.18182 14.1C3.3868 14.1 4.36364 13.1598 4.36364 12ZM24 12C24 10.8402 23.0232 9.90001 21.8182 9.90001C20.6132 9.90001 19.6364 10.8402 19.6364 12C19.6364 13.1598 20.6132 14.1 21.8182 14.1C23.0232 14.1 24 13.1598 24 12ZM12 9.90001C13.205 9.90001 14.1818 10.8402 14.1818 12C14.1818 13.1598 13.205 14.1 12 14.1C10.795 14.1 9.81818 13.1598 9.81818 12C9.81818 10.8402 10.795 9.90001 12 9.90001Z" fill="white"/>
</mask>
<g mask="url(#mask0_979:14525)">
<rect y="100" width="100" height="24" transform="rotate(-90 0 100)" fill="#475569"/>
<mask id="mask1_979:14525" style="mask-type:alpha" maskUnits="userSpaceOnUse" x="0" y="0" width="24" height="100">
<rect y="100" width="100" height="24" transform="rotate(-90 0 100)" fill="white"/>
</mask>
<g mask="url(#mask1_979:14525)">
</g>
</g>
</svg>
