<svg width="24" height="24" viewBox="0 0 24 24" fill="none" xmlns="http://www.w3.org/2000/svg">
<path d="M4.79501 7.05589C4.79501 5.80689 5.80701 4.79489 7.05601 4.79389H8.08501C8.68201 4.79389 9.25401 4.55689 9.67801 4.13689L10.397 3.41689C11.278 2.53089 12.71 2.52689 13.596 3.40789L13.597 3.40889L13.606 3.41689L14.326 4.13689C14.75 4.55789 15.322 4.79389 15.919 4.79389H16.947C18.196 4.79389 19.209 5.80589 19.209 7.05589V8.08289C19.209 8.67989 19.445 9.25289 19.866 9.67689L20.586 10.3969C21.472 11.2779 21.477 12.7099 20.596 13.5959L20.595 13.5969L20.586 13.6059L19.866 14.3259C19.445 14.7489 19.209 15.3209 19.209 15.9179V16.9469C19.209 18.1959 18.197 19.2079 16.948 19.2079H16.947H15.917C15.32 19.2079 14.747 19.4449 14.324 19.8659L13.604 20.5849C12.724 21.4709 11.293 21.4759 10.407 20.5969C10.406 20.5959 10.405 20.5949 10.404 20.5939L10.395 20.5849L9.67601 19.8659C9.25301 19.4449 8.68001 19.2089 8.08301 19.2079H7.05601C5.80701 19.2079 4.79501 18.1959 4.79501 16.9469V15.9159C4.79501 15.3189 4.55801 14.7469 4.13701 14.3239L3.41801 13.6039C2.53201 12.7239 2.52701 11.2929 3.40701 10.4069C3.40701 10.4059 3.40801 10.4049 3.40901 10.4039L3.41801 10.3949L4.13701 9.67489C4.55801 9.25089 4.79501 8.67889 4.79501 8.08089V7.05589" stroke="#130F26" stroke-width="1.5" stroke-linecap="round" stroke-linejoin="round"/>
<path d="M9.43164 14.5716L14.5716 9.43164" stroke="#130F26" stroke-width="1.5" stroke-linecap="round" stroke-linejoin="round"/>
<path d="M14.4955 14.5H14.5045" stroke="#130F26" stroke-width="2" stroke-linecap="round" stroke-linejoin="round"/>
<path d="M9.4955 9.5H9.5045" stroke="#130F26" stroke-width="2" stroke-linecap="round" stroke-linejoin="round"/>
</svg>
