<svg width="32" height="32" viewBox="0 0 32 32" fill="none" xmlns="http://www.w3.org/2000/svg">
<rect x="5.3335" y="5.33337" width="21" height="21" fill="white" fill-opacity="0.01"/>
<path d="M10.4325 18.0853L9.73631 20.6842L7.19178 20.738C6.43133 19.3276 6 17.7139 6 15.9991C6 14.3409 6.40329 12.7772 7.11814 11.4003H7.11869L9.38403 11.8156L10.3764 14.0672C10.1687 14.6727 10.0555 15.3227 10.0555 15.9991C10.0556 16.7331 10.1885 17.4364 10.4325 18.0853Z" fill="#FBBB00"/>
<path d="M25.8253 14.1312C25.9401 14.7361 26 15.3609 26 15.9993C26 16.7152 25.9248 17.4136 25.7814 18.0872C25.2945 20.3795 24.0225 22.3811 22.2604 23.7975L22.2599 23.797L19.4066 23.6514L19.0027 21.1305C20.172 20.4449 21.0857 19.3718 21.5671 18.0872H16.2197V14.1312H21.6451H25.8253Z" fill="#518EF8"/>
<path d="M22.2598 23.7978L22.2603 23.7984C20.5466 25.1758 18.3696 26 15.9998 26C12.1915 26 8.88045 23.8715 7.19141 20.7391L10.4321 18.0864C11.2766 20.3402 13.4508 21.9446 15.9998 21.9446C17.0954 21.9446 18.1218 21.6484 19.0026 21.1314L22.2598 23.7978Z" fill="#28B446"/>
<path d="M22.3835 8.30214L19.1439 10.9543C18.2323 10.3845 17.1548 10.0554 16.0004 10.0554C13.3938 10.0554 11.1789 11.7334 10.3767 14.068L7.11896 11.401H7.11841C8.78273 8.19226 12.1355 6 16.0004 6C18.4268 6 20.6516 6.86428 22.3835 8.30214Z" fill="#F14336"/>
</svg>
