<svg width="32" height="32" viewBox="0 0 32 32" fill="none" xmlns="http://www.w3.org/2000/svg">
<path d="M23.3334 8.66663H8.66675V23.3333H23.3334V8.66663Z" fill="white"/>
<path d="M17.1201 13.9466L17.7921 14.9066L18.8481 14.1386V19.7066H20.0001V12.4106H19.0401L17.1201 13.9466Z" fill="#1E88E5"/>
<path d="M15.2953 15.83C15.7119 15.4473 15.9706 14.9166 15.9706 14.3306C15.9706 13.166 14.9486 12.2186 13.6926 12.2186C12.6246 12.2186 11.7113 12.8913 11.4726 13.854L12.5773 14.1346C12.6873 13.692 13.1559 13.3706 13.6926 13.3706C14.3206 13.3706 14.8319 13.8013 14.8319 14.3306C14.8319 14.86 14.3206 15.2906 13.6926 15.2906H13.0279V16.4426H13.6926C14.4133 16.4426 15.0213 16.9433 15.0213 17.536C15.0213 18.1386 14.4439 18.6293 13.7339 18.6293C13.0926 18.6293 12.5446 18.2226 12.4579 17.684L11.3333 17.868C11.5079 18.9586 12.5399 19.7813 13.7333 19.7813C15.0713 19.7813 16.1599 18.774 16.1599 17.536C16.1599 16.854 15.8239 16.242 15.2953 15.83Z" fill="#1E88E5"/>
<path d="M22.6667 28H9.33341L8.66675 25.3333L9.33341 22.6666H22.6667L23.3334 25.3333L22.6667 28Z" fill="#FBC02D"/>
<path d="M25.3334 23.3333L28.0001 22.6666V9.33329L25.3334 8.66663L22.6667 9.33329V22.6666L25.3334 23.3333Z" fill="#4CAF50"/>
<path d="M22.6667 9.33333L23.3333 6.66667L22.6667 4H6C4.89533 4 4 4.89533 4 6V22.6667L6.66667 23.3333L9.33333 22.6667V9.33333H22.6667Z" fill="#1E88E5"/>
<path d="M22.6667 22.6666V28L28.0001 22.6666H22.6667Z" fill="#E53935"/>
<path d="M26.0001 4H22.6667V9.33333H28.0001V6C28.0001 4.89533 27.1047 4 26.0001 4Z" fill="#1565C0"/>
<path d="M6 28H9.33333V22.6666H4V26C4 27.1046 4.89533 28 6 28Z" fill="#1565C0"/>
</svg>
