<svg width="32" height="32" viewBox="0 0 32 32" fill="none" xmlns="http://www.w3.org/2000/svg">
<path d="M24.1908 6H7.80916C6.81 6 6 6.81 6 7.80916V24.1908C6 25.19 6.81 26 7.80916 26H24.1908C25.19 26 26 25.19 26 24.1908V7.80916C26 6.81 25.19 6 24.1908 6ZM12.1888 23.2693C12.1888 23.5601 11.9531 23.7958 11.6624 23.7958H9.4212C9.13042 23.7958 8.89471 23.5601 8.89471 23.2693V13.8745C8.89471 13.5837 9.13042 13.348 9.4212 13.348H11.6624C11.9531 13.348 12.1888 13.5837 12.1888 13.8745V23.2693ZM10.5418 12.4624C9.36592 12.4624 8.41267 11.5092 8.41267 10.3333C8.41267 9.15743 9.36592 8.20419 10.5418 8.20419C11.7176 8.20419 12.6709 9.15743 12.6709 10.3333C12.6709 11.5092 11.7177 12.4624 10.5418 12.4624ZM23.901 23.3117C23.901 23.5791 23.6843 23.7958 23.417 23.7958H21.012C20.7447 23.7958 20.528 23.5791 20.528 23.3117V18.905C20.528 18.2476 20.7208 16.0243 18.81 16.0243C17.3279 16.0243 17.0272 17.5461 16.9669 18.2291V23.3117C16.9669 23.5791 16.7502 23.7958 16.4828 23.7958H14.1568C13.8895 23.7958 13.6727 23.5791 13.6727 23.3117V13.8321C13.6727 13.5648 13.8895 13.348 14.1568 13.348H16.4828C16.7501 13.348 16.9669 13.5648 16.9669 13.8321V14.6517C17.5164 13.827 18.3332 13.1904 20.0722 13.1904C23.9231 13.1904 23.901 16.7881 23.901 18.7648V23.3117Z" fill="#0077B7"/>
</svg>
