<svg width="32" height="32" viewBox="0 0 32 32" fill="none" xmlns="http://www.w3.org/2000/svg">
<path d="M14 20.6667C14 21.4027 14.5973 22 15.3333 22H26.6667C27.4027 22 28 21.4027 28 20.6667V10.6667C28 9.93071 27.4027 9.33337 26.6667 9.33337H15.3333C14.5973 9.33337 14 9.93071 14 10.6667V20.6667Z" fill="#03A9F4"/>
<path d="M28 11.3167V10.6667C28 10.3814 27.9087 10.118 27.7553 9.90137L20.246 14.5227L15.218 11.4187L14.75 12.6667L20.3893 16L28 11.3167Z" fill="#B3E5FC"/>
<path d="M18 27.64L4 24.9734V6.30668L18 3.64001V27.64Z" fill="#0277BD"/>
<path d="M14.144 12.2073C13.412 11.3573 12.4467 10.932 11.2587 10.932C9.99733 10.932 8.98666 11.378 8.22266 12.2673C7.45999 13.1587 7.07666 14.326 7.07666 15.7647C7.07666 17.128 7.45266 18.2407 8.20333 19.0887C8.95399 19.9373 9.93133 20.362 11.122 20.362C12.3487 20.362 13.3427 19.9273 14.1047 19.0453C14.8667 18.17 15.246 17.0167 15.246 15.5793C15.246 14.1873 14.8787 13.0633 14.144 12.2073ZM12.6993 17.8233C12.3207 18.336 11.8067 18.5913 11.1573 18.5913C10.5313 18.5913 10.0247 18.3287 9.63399 17.8C9.24666 17.2767 9.05399 16.5593 9.05399 15.6593C9.05399 14.7687 9.24666 14.05 9.63399 13.5093C10.0247 12.9693 10.546 12.702 11.204 12.702C11.8453 12.702 12.3493 12.964 12.7153 13.4873C13.0853 14.0173 13.2707 14.7507 13.2707 15.694C13.2713 16.604 13.0787 17.312 12.6993 17.8233Z" fill="white"/>
</svg>
