<svg width="24" height="24" viewBox="0 0 24 24" fill="none" xmlns="http://www.w3.org/2000/svg">
<path fill-rule="evenodd" clip-rule="evenodd" d="M16.334 2.75H7.665C4.644 2.75 2.75 4.889 2.75 7.916V16.084C2.75 19.111 4.635 21.25 7.665 21.25H16.333C19.364 21.25 21.25 19.111 21.25 16.084V7.916C21.25 4.889 19.364 2.75 16.334 2.75Z" stroke="#130F26" stroke-width="1.5" stroke-linecap="round" stroke-linejoin="round"/>
<path fill-rule="evenodd" clip-rule="evenodd" d="M10.6891 11.9999C10.6891 13.0229 9.86011 13.8519 8.83711 13.8519C7.81411 13.8519 6.98511 13.0229 6.98511 11.9999C6.98511 10.9769 7.81411 10.1479 8.83711 10.1479H8.84011C9.86111 10.1489 10.6891 10.9779 10.6891 11.9999Z" stroke="#130F26" stroke-width="1.5" stroke-linecap="round" stroke-linejoin="round"/>
<path d="M10.6919 12H17.0099V13.852" stroke="#130F26" stroke-width="1.5" stroke-linecap="round" stroke-linejoin="round"/>
<path d="M14.1816 13.852V12" stroke="#130F26" stroke-width="1.5" stroke-linecap="round" stroke-linejoin="round"/>
</svg>
