<svg width="20" height="20" viewBox="0 0 20 20" fill="none" xmlns="http://www.w3.org/2000/svg">
<path fill-rule="evenodd" clip-rule="evenodd" d="M14.4558 2.48023C12.8564 0.88082 10.7299 0 8.46801 0C6.20609 0 4.07961 0.88082 2.48023 2.48023C0.88082 4.07961 0 6.20609 0 8.46797C0 10.7299 0.88082 12.8564 2.48023 14.4557C4.07961 16.0551 6.20613 16.936 8.46801 16.936C10.4584 16.936 12.344 16.2539 13.8578 15.0003L18.6208 19.7634C18.7786 19.9211 18.9854 20 19.1921 20C19.3989 20 19.6057 19.9211 19.7634 19.7634C20.0789 19.4479 20.0789 18.9363 19.7634 18.6208L15.0003 13.8578C16.2539 12.344 16.936 10.4584 16.936 8.46797C16.936 6.20609 16.0552 4.07961 14.4558 2.48023ZM1.61578 8.46797C1.61578 12.2463 4.68965 15.3202 8.46797 15.3202C12.2463 15.3202 15.3202 12.2463 15.3202 8.46797C15.3202 4.68965 12.2463 1.61578 8.46801 1.61578C4.68969 1.61578 1.61578 4.68965 1.61578 8.46797Z" fill="#94A3B8"/>
<mask id="mask0_17_7216" style="mask-type:alpha" maskUnits="userSpaceOnUse" x="0" y="0" width="20" height="20">
<path fill-rule="evenodd" clip-rule="evenodd" d="M14.4558 2.48023C12.8564 0.88082 10.7299 0 8.46801 0C6.20609 0 4.07961 0.88082 2.48023 2.48023C0.88082 4.07961 0 6.20609 0 8.46797C0 10.7299 0.88082 12.8564 2.48023 14.4557C4.07961 16.0551 6.20613 16.936 8.46801 16.936C10.4584 16.936 12.344 16.2539 13.8578 15.0003L18.6208 19.7634C18.7786 19.9211 18.9854 20 19.1921 20C19.3989 20 19.6057 19.9211 19.7634 19.7634C20.0789 19.4479 20.0789 18.9363 19.7634 18.6208L15.0003 13.8578C16.2539 12.344 16.936 10.4584 16.936 8.46797C16.936 6.20609 16.0552 4.07961 14.4558 2.48023ZM1.61578 8.46797C1.61578 12.2463 4.68965 15.3202 8.46797 15.3202C12.2463 15.3202 15.3202 12.2463 15.3202 8.46797C15.3202 4.68965 12.2463 1.61578 8.46801 1.61578C4.68969 1.61578 1.61578 4.68965 1.61578 8.46797Z" fill="white"/>
</mask>
<g mask="url(#mask0_17_7216)">
<rect x="-80" width="100" height="20" fill="#94A3B8"/>
<mask id="mask1_17_7216" style="mask-type:alpha" maskUnits="userSpaceOnUse" x="-80" y="0" width="100" height="20">
<rect x="-80" width="100" height="20" fill="white"/>
</mask>
<g mask="url(#mask1_17_7216)">
</g>
</g>
</svg>
