<svg width="39" height="39" viewBox="0 0 39 39" fill="none" xmlns="http://www.w3.org/2000/svg">
<path fill-rule="evenodd" clip-rule="evenodd" d="M30.195 38.6946C29.8894 38.6959 29.588 38.6201 29.3161 38.4737L19.5712 33.1133L9.82643 38.4737C9.18085 38.8304 8.39832 38.7698 7.8095 38.3175C7.22067 37.8652 6.92827 37.1002 7.05584 36.3456L8.96659 25.0427L1.09431 17.0121C0.593796 16.4873 0.410036 15.715 0.616618 15.0045C0.842553 14.2766 1.44287 13.747 2.16432 13.6393L13.0556 11.973L17.8516 1.67379C18.1708 0.981172 18.8388 0.54126 19.5712 0.54126C20.3037 0.54126 20.9717 0.981172 21.2909 1.67379L26.1442 11.9529L37.0355 13.6192C37.7569 13.727 38.3573 14.2565 38.5832 14.9844C38.7898 15.6949 38.606 16.4672 38.1055 16.992L30.2332 25.0226L32.144 36.3256C32.2833 37.0941 31.985 37.8776 31.3797 38.3332C31.0337 38.588 30.6171 38.715 30.195 38.6946Z" fill="#E2E8F0"/>
</svg>
