<svg width="24" height="24" viewBox="0 0 24 24" fill="none" xmlns="http://www.w3.org/2000/svg">
<path fill-rule="evenodd" clip-rule="evenodd" d="M17.8572 20.417C19.7302 20.417 21.2492 18.899 21.2502 17.026V17.024V14.324C20.0132 14.324 19.0112 13.322 19.0102 12.085C19.0102 10.849 20.0122 9.846 21.2492 9.846H21.2502V7.146C21.2522 5.272 19.7352 3.752 17.8622 3.75H17.8562H6.14424C4.27024 3.75 2.75124 5.268 2.75024 7.142V7.143V9.933C3.94424 9.891 4.94524 10.825 4.98724 12.019C4.98824 12.041 4.98924 12.063 4.98924 12.085C4.99024 13.32 3.99124 14.322 2.75624 14.324H2.75024V17.024C2.74924 18.897 4.26824 20.417 6.14124 20.417H6.14224H17.8572Z" stroke="#130F26" stroke-width="1.5" stroke-linecap="round" stroke-linejoin="round"/>
<path fill-rule="evenodd" clip-rule="evenodd" d="M12.3713 9.06303L12.9873 10.31C13.0473 10.432 13.1633 10.517 13.2983 10.537L14.6753 10.738C15.0163 10.788 15.1513 11.206 14.9053 11.445L13.9093 12.415C13.8113 12.51 13.7673 12.647 13.7893 12.782L14.0243 14.152C14.0823 14.491 13.7273 14.749 13.4233 14.589L12.1923 13.942C12.0713 13.878 11.9273 13.878 11.8063 13.942L10.5763 14.589C10.2713 14.749 9.91634 14.491 9.97434 14.152L10.2093 12.782C10.2323 12.647 10.1873 12.51 10.0893 12.415L9.09434 11.445C8.84834 11.206 8.98334 10.788 9.32334 10.738L10.7003 10.537C10.8353 10.517 10.9523 10.432 11.0123 10.31L11.6273 9.06303C11.7793 8.75503 12.2193 8.75503 12.3713 9.06303Z" stroke="#130F26" stroke-width="1.5" stroke-linecap="round" stroke-linejoin="round"/>
</svg>
