<svg width="20" height="20" viewBox="0 0 20 20" fill="none" xmlns="http://www.w3.org/2000/svg">
<path fill-rule="evenodd" clip-rule="evenodd" d="M7.86193 2.86177C7.98695 2.73674 8.15652 2.6665 8.33333 2.6665H11.6667C11.8435 2.6665 12.013 2.73674 12.1381 2.86177C12.2631 2.98679 12.3333 3.15636 12.3333 3.33317V3.99984H7.66667V3.33317C7.66667 3.15636 7.7369 2.98679 7.86193 2.86177ZM5.66667 3.99984V3.33317C5.66667 2.62593 5.94762 1.94765 6.44772 1.44755C6.94781 0.947456 7.62609 0.666504 8.33333 0.666504H11.6667C12.3739 0.666504 13.0522 0.947456 13.5523 1.44755C14.0524 1.94765 14.3333 2.62593 14.3333 3.33317V3.99984H15.8333H17.5C18.0523 3.99984 18.5 4.44755 18.5 4.99984C18.5 5.55212 18.0523 5.99984 17.5 5.99984H16.8333V16.6665C16.8333 17.3738 16.5524 18.052 16.0523 18.5521C15.5522 19.0522 14.8739 19.3332 14.1667 19.3332H5.83333C5.12609 19.3332 4.44781 19.0522 3.94771 18.5521C3.44762 18.052 3.16667 17.3737 3.16667 16.6665V5.99984H2.5C1.94772 5.99984 1.5 5.55212 1.5 4.99984C1.5 4.44755 1.94772 3.99984 2.5 3.99984H4.16667H5.66667ZM5.16667 5.99984V16.6665C5.16667 16.8433 5.2369 17.0129 5.36193 17.1379C5.48695 17.2629 5.65652 17.3332 5.83333 17.3332H14.1667C14.3435 17.3332 14.513 17.2629 14.6381 17.1379C14.7631 17.0129 14.8333 16.8433 14.8333 16.6665V5.99984H13.3333H6.66667H5.16667ZM8.33333 8.1665C8.88562 8.1665 9.33333 8.61422 9.33333 9.1665V14.1665C9.33333 14.7188 8.88562 15.1665 8.33333 15.1665C7.78105 15.1665 7.33333 14.7188 7.33333 14.1665V9.1665C7.33333 8.61422 7.78105 8.1665 8.33333 8.1665ZM12.6667 9.1665C12.6667 8.61422 12.219 8.1665 11.6667 8.1665C11.1144 8.1665 10.6667 8.61422 10.6667 9.1665V14.1665C10.6667 14.7188 11.1144 15.1665 11.6667 15.1665C12.219 15.1665 12.6667 14.7188 12.6667 14.1665V9.1665Z" fill="#000"/>
</svg>
