<svg width="32" height="28" viewBox="0 0 32 28" fill="none" xmlns="http://www.w3.org/2000/svg">
<path d="M27.7259 6.44157C27.5739 6.26466 27.3291 6.21869 27.1296 6.32943C26.9243 6.42873 26.712 6.51046 26.4944 6.57384C26.8336 6.1118 27.0897 5.58703 27.2497 5.0259C27.3203 4.74354 27.1624 4.4538 26.8971 4.37876C26.7556 4.33869 26.6046 4.36721 26.4846 4.45668C25.729 4.89199 24.926 5.22641 24.0934 5.45233C22.3797 3.73025 19.7693 3.51559 17.8275 4.93707C16.3317 6.0138 15.5083 7.87474 15.6809 9.78821C12.4385 9.49406 9.45524 7.78344 7.44029 5.06294C7.33677 4.92963 7.18016 4.85623 7.0179 4.8651C6.85336 4.87562 6.70447 4.97233 6.62039 5.12325C5.93653 6.31341 5.7384 7.74907 6.07181 9.09833C6.24278 9.79159 6.53584 10.444 6.93544 11.0208C6.75544 10.927 6.58606 10.8116 6.4306 10.677C6.21748 10.4929 5.90457 10.5276 5.73165 10.7546C5.65991 10.8487 5.62069 10.9663 5.62064 11.0875C5.65017 13.0449 6.65976 14.8364 8.26813 15.7853C8.05114 15.7569 7.83694 15.7081 7.62811 15.6393C7.36533 15.5551 7.0882 15.7137 7.00914 15.9934C6.97467 16.1155 6.98273 16.2467 7.03183 16.363C7.7299 18.0278 9.12547 19.2437 10.7964 19.6429C9.20444 20.5991 7.37133 21.0009 5.55407 20.792C5.31844 20.76 5.09521 20.9124 5.02436 21.1539C4.95131 21.3933 5.0469 21.6544 5.25295 21.7781C7.47806 23.1856 10.0093 23.9514 12.5971 24C15.0798 23.9903 17.5046 23.2009 19.5677 21.7304C23.5061 18.9479 25.9609 13.9517 25.619 9.48141C26.4611 8.81777 27.1916 8.00717 27.7796 7.08389C27.9004 6.88154 27.8783 6.61799 27.7259 6.44157Z" fill="#03A9F4"/>
</svg>
