<svg width="32" height="32" viewBox="0 0 32 32" fill="none" xmlns="http://www.w3.org/2000/svg">
<path d="M19.7467 2L22.0353 5.53867L26.2447 5.74933L26.4573 9.958L29.998 12.2447L28.0773 15.9967L30 19.7467L26.4613 22.0353L26.2507 26.2447L22.042 26.4573L19.7553 29.998L16.0033 28.0773L12.2533 30L9.96467 26.4613L5.75533 26.2507L5.54267 22.042L2.002 19.7553L3.92267 16.0033L2 12.2533L5.53867 9.96467L5.74933 5.75533L9.958 5.54267L12.2447 2.002L15.9967 3.92267L19.7467 2Z" fill="#42A5F5"/>
<path d="M14.264 20.8367L9.93262 16.5067L11.3473 15.0927L14.2853 18.0307L20.664 11.848L22.056 13.284L14.264 20.8367Z" fill="white"/>
</svg>
