<svg width="24" height="24" viewBox="0 0 24 24" fill="none" xmlns="http://www.w3.org/2000/svg">
<path fill-rule="evenodd" clip-rule="evenodd" d="M14.5328 9.46704L7.71351 16.2869C7.53626 16.1842 7.36835 16.1189 7.21909 16.1096C5.92239 16.0163 5.41864 16.1656 4.70965 15.5592C3.9447 14.9061 4.00067 13.1615 4.00067 11.8834C4.00067 10.6052 3.9447 8.86063 4.70965 8.20757C5.41864 7.60115 5.92239 7.75975 7.21909 7.65713C8.51578 7.55451 11.2584 3.59882 13.3761 4.84897C14.2343 5.54868 14.4675 6.8548 14.5328 9.46704Z" stroke="#130F26" stroke-width="1.5" stroke-linecap="round" stroke-linejoin="round"/>
<path d="M14.5329 13.9172C14.4956 16.7907 14.2717 18.1901 13.3762 18.9178C12.3966 19.4962 11.2865 18.9645 10.2417 18.2088" stroke="#130F26" stroke-width="1.5" stroke-linecap="round" stroke-linejoin="round"/>
<path d="M4.00122 20L7.71406 16.2869L14.5334 9.46706L20 4" stroke="#130F26" stroke-width="1.5" stroke-linecap="round" stroke-linejoin="round"/>
</svg>
