<svg width="32" height="32" viewBox="0 0 32 32" fill="none" xmlns="http://www.w3.org/2000/svg">
<path d="M20.36 18C20.44 17.34 20.5 16.68 20.5 16C20.5 15.32 20.44 14.66 20.36 14H23.74C23.9 14.64 24 15.31 24 16C24 16.69 23.9 17.36 23.74 18H20.36ZM18.59 23.56C19.19 22.45 19.65 21.25 19.97 20H22.92C21.96 21.65 20.43 22.93 18.59 23.56ZM18.34 18H13.66C13.56 17.34 13.5 16.68 13.5 16C13.5 15.32 13.56 14.65 13.66 14H18.34C18.43 14.65 18.5 15.32 18.5 16C18.5 16.68 18.43 17.34 18.34 18ZM16 23.96C15.17 22.76 14.5 21.43 14.09 20H17.91C17.5 21.43 16.83 22.76 16 23.96ZM12 12H9.08C10.03 10.34 11.57 9.06 13.4 8.44C12.8 9.55 12.35 10.75 12 12ZM9.08 20H12C12.35 21.25 12.8 22.45 13.4 23.56C11.57 22.93 10.03 21.65 9.08 20ZM8.26 18C8.1 17.36 8 16.69 8 16C8 15.31 8.1 14.64 8.26 14H11.64C11.56 14.66 11.5 15.32 11.5 16C11.5 16.68 11.56 17.34 11.64 18H8.26ZM16 8.03C16.83 9.23 17.5 10.57 17.91 12H14.09C14.5 10.57 15.17 9.23 16 8.03ZM22.92 12H19.97C19.65 10.75 19.19 9.55 18.59 8.44C20.43 9.07 21.96 10.34 22.92 12ZM16 6C10.47 6 6 10.5 6 16C6 18.6522 7.05357 21.1957 8.92893 23.0711C9.85752 23.9997 10.9599 24.7362 12.1732 25.2388C13.3864 25.7413 14.6868 26 16 26C18.6522 26 21.1957 24.9464 23.0711 23.0711C24.9464 21.1957 26 18.6522 26 16C26 14.6868 25.7413 13.3864 25.2388 12.1732C24.7362 10.9599 23.9997 9.85752 23.0711 8.92893C22.1425 8.00035 21.0401 7.26375 19.8268 6.7612C18.6136 6.25866 17.3132 6 16 6Z" fill="#428BF9"/>
</svg>
