<svg width="45" height="44" viewBox="0 0 45 44" fill="none" xmlns="http://www.w3.org/2000/svg">
<path d="M33.2815 0H11.7302C5.53104 0 0.510986 5.02123 0.510986 11.2219L1.5617 32.7781C1.5617 38.9788 6.58175 44 12.7809 44H32.2191C38.4183 44 43.4383 38.9788 43.4383 32.7781L44.489 11.2219C44.5007 5.03291 39.469 0 33.2815 0ZM10.3526 14.8652C10.3526 13.6157 11.1465 12.5064 12.3373 12.1093C15.7346 10.9766 23.0545 9.2017 30.7597 11.4437C34.6707 12.5764 35.9549 17.4809 33.1063 20.3885C31.2618 22.2686 28.3314 22.5488 26.1717 21.0425C23.5682 19.2208 19.3887 17.3524 13.4814 17.7962C11.7886 17.9246 10.3526 16.6051 10.3526 14.9119V14.8652V14.8652ZM34.6474 29.1582C34.6474 30.4076 33.8535 31.517 32.6627 31.914C29.2654 33.0467 21.9455 34.8217 14.2403 32.5796C10.3293 31.4469 9.04508 26.5425 11.8937 23.6348C13.7383 21.7548 16.6686 21.4745 18.8284 22.9809C21.4318 24.8025 25.6113 26.6709 31.5186 26.2272C33.2114 26.0987 34.6474 27.4183 34.6474 29.1115V29.1582Z" fill="white"/>
</svg>
